<?xml version="1.0" encoding="iso-8859-1"?>
<!-- Uploaded to: SVG Repo, www.svgrepo.com, Generator: SVG Repo Mixer Tools -->
<svg version="1.1" id="Layer_1" xmlns="http://www.w3.org/2000/svg" xmlns:xlink="http://www.w3.org/1999/xlink" 
	 viewBox="0 0 512 512" xml:space="preserve">
<g>
	<rect x="87.579" y="67.368" style="fill:#CFCDD2;" width="40.421" height="107.789"/>
	<rect x="26.947" y="20.211" style="fill:#CFCDD2;" width="53.895" height="40.421"/>
	<rect x="134.737" y="20.211" style="fill:#CFCDD2;" width="53.895" height="40.421"/>
	<path style="fill:#CFCDD2;" d="M485.053,350.316c0-74.473-60.264-134.737-134.737-134.737H148.211v80.842h202.105
		c29.789,0,53.895,24.106,53.895,53.895v13.474h80.842V350.316z"/>
</g>
<g>
	<rect x="53.895" y="161.684" style="fill:#DFDFE1;" width="107.789" height="188.632"/>
	<circle style="fill:#DFDFE1;" cx="107.789" cy="40.421" r="40.421"/>
</g>
<path style="fill:#7AB9E8;" d="M444.632,512c-5.779,0-11.283-1.176-16.287-3.302c-20.782-8.829-27.943-34.745-14.995-53.243
	l31.282-44.687l31.282,44.688c12.95,18.498,5.788,44.413-14.995,53.243C455.914,510.824,450.41,512,444.632,512z"/>
<path style="fill:#AEADB3;" d="M350.316,215.579H256v80.842h94.316c29.789,0,53.895,24.106,53.895,53.895v13.474h80.842v-13.474
	C485.053,275.843,424.789,215.579,350.316,215.579z"/>
</svg>