<?xml version="1.0" encoding="iso-8859-1"?>
<!-- Uploaded to: SVG Repo, www.svgrepo.com, Generator: SVG Repo Mixer Tools -->
<svg version="1.1" id="Layer_1" xmlns="http://www.w3.org/2000/svg" xmlns:xlink="http://www.w3.org/1999/xlink" 
	 viewBox="0 0 512 512" xml:space="preserve">
<g>
	<polygon style="fill:#F39624;" points="473.906,155.544 256,155.544 235.085,183.545 256,211.545 473.906,211.545 	"/>
	<polygon style="fill:#F39624;" points="473.906,415.532 473.906,359.531 256,359.531 235.085,387.531 256,415.532 	"/>
</g>
<g>
	<rect x="38.094" y="155.544" style="fill:#F7C02D;" width="217.903" height="56.001"/>
	<rect x="38.094" y="359.528" style="fill:#F7C02D;" width="217.903" height="56.001"/>
</g>
<polygon style="fill:#C75214;" points="76.188,74.908 38.094,31.787 17.179,268.157 38.094,480.213 76.188,480.213 "/>
<polygon style="fill:#E37E31;" points="0,74.908 0,480.213 38.094,480.213 38.094,31.787 "/>
<polygon style="fill:#C75214;" points="221.459,74.908 183.365,31.787 162.45,268.157 183.365,480.213 221.459,480.213 "/>
<polygon style="fill:#E37E31;" points="145.271,74.908 145.271,480.213 183.365,480.213 183.365,31.787 "/>
<polygon style="fill:#C75214;" points="366.729,74.908 328.635,31.787 307.72,268.157 328.635,480.213 366.729,480.213 "/>
<polygon style="fill:#E37E31;" points="290.541,74.908 290.541,480.213 328.635,480.213 328.635,31.787 "/>
<polygon style="fill:#C75214;" points="512,74.908 473.906,31.787 452.991,268.157 473.906,480.213 512,480.213 "/>
<polygon style="fill:#E37E31;" points="435.812,74.908 435.812,480.213 473.906,480.213 473.906,31.787 "/>
</svg>