<?xml version="1.0" encoding="iso-8859-1"?>
<!-- Uploaded to: SVG Repo, www.svgrepo.com, Generator: SVG Repo Mixer Tools -->
<svg height="800px" width="800px" version="1.1" id="Layer_1" xmlns="http://www.w3.org/2000/svg" xmlns:xlink="http://www.w3.org/1999/xlink" 
	 viewBox="0 0 512 512" xml:space="preserve">
<g>
	<path style="fill:#6EBEC5;" d="M256,512C114.616,512,0,397.384,0,256S114.616,0,256,0s256,114.616,256,256S397.384,512,256,512
		L256,512z"/>
	<path style="fill:#59ABB3;" d="M325.125,325.78c-1.106,0-2.258,0.389-3.19,1.316c-0.927,0.927-1.316,2.079-1.316,3.18
		c0,0.896,0.256,1.761,0.691,2.447l8.248,13.056l0.543,0.865l2.857,4.521l-0.015,0.015l9.615,15.242
		c0.594,0.937,1.203,1.72,1.874,2.391l0.041,0.041l0.005,0.005c0.952,0.942,2.012,1.71,3.139,2.314l-0.005,0.005
		c2.002,1.07,4.214,1.608,6.426,1.608c0.927,0,1.848-0.092,2.76-0.282l0.01-0.01c2.406-0.497,4.71-1.644,6.61-3.456l0.005-0.005
		l0.046-0.041l0.005-0.005l0.036-0.031l0.01-0.015l0.036-0.036l0.01-0.01l0.031-0.031l0.01-0.01l0.041-0.041l0.041-0.041l0.01-0.01
		l0.041-0.041l0,0l0.041-0.041l0.005-0.005c1.864-1.915,3.041-4.255,3.543-6.702l0.01-0.01c0.189-0.911,0.282-1.833,0.282-2.76
		c0-2.212-0.538-4.429-1.608-6.426l-0.005,0.005c-0.604-1.126-1.372-2.186-2.314-3.139l-0.005-0.005l-0.041-0.041
		c-0.671-0.671-1.449-1.285-2.391-1.874l-0.43-0.271l-6.441-4.07l-6.441-4.07l0,0l-1.92-1.213l-0.036,0.036l-4.521-2.857
		l-5.146-3.256l-7.731-4.89l0,0l-1.029-0.65C326.886,326.036,326.021,325.78,325.125,325.78L325.125,325.78z M114.217,225.562
		l-36.296,36.301L114.217,225.562L114.217,225.562L114.217,225.562z M225.341,114.437l-87.071,87.066l12.078-12.078l31.933-31.933
		L225.341,114.437L225.341,114.437z M258.452,81.336l85.356,92.365l-45.481,45.481l45.43-45.43c0.968-0.968,2.237-1.449,3.502-1.449
		s2.534,0.481,3.502,1.449l2.243,2.243l7.122,7.122l0.328,0.328l0.297,0.364c9.021,9.718,8.832,24.899-0.625,34.35l-42.015,42.015
		c-1.787,1.787-3.241,3.942-4.311,6.272h0.021c-3.231,7.03-2.964,15.652,2.34,20.547l0.015-0.015
		c0.507,0.471,1.044,0.917,1.649,1.316l4.644,2.908l6.461,4.05l6.461,4.05l0,0l4.219,2.647l6.298,3.948l2.406,1.51l14.459,9.062
		l4.925,3.087l8.125,5.094l-0.015,0.021l0.072,0.046l0,0c2.493,1.582,4.869,3.43,7.045,5.606l0.087,0.087l0.031,0.031l0.015,0.015
		c7.885,7.956,11.827,18.35,11.827,28.744c0,10.455-3.988,20.905-11.965,28.882c-7.977,7.977-18.427,11.965-28.882,11.965
		c-10.419,0-20.844-3.963-28.81-11.889l-0.072-0.072c-2.197-2.196-4.06-4.593-5.652-7.117l-0.015,0.015l-5.094-8.125l0,0
		l-1.961-3.133l-10.189-16.251l0,0l-2.043-3.261l-3.543-5.652l-2.514-4.009l-5.197-8.294l-2.903-4.628l-2.908-4.639
		c-0.399-0.599-0.85-1.137-1.321-1.643l0.015-0.015c-2.862-3.082-6.922-4.465-11.192-4.465c-2.478,0-5.028,0.466-7.455,1.336v-0.021
		c-3.057,1.096-5.914,2.842-8.187,5.115l-40.243,40.243c-4.833,4.833-11.156,7.245-17.485,7.245c-6.057,0-12.114-2.207-16.865-6.62
		l-0.364-0.297l-0.328-0.328l-7.122-7.122l-2.243-2.243c-0.968-0.968-1.454-2.237-1.454-3.502c0-1.27,0.486-2.534,1.454-3.502
		l81.331-81.331l-81.388,81.377l-8.417-7.782l-76.872-71.035l-7.081-6.543l241.341,241.239l-0.051,0.051l0.84,0.773
		c88.12-22.697,157.803-91.172,182.359-178.534L258.452,81.336L258.452,81.336z M258.447,81.331l-23.439,23.439l0,0L258.447,81.331
		L258.447,81.331L258.447,81.331z"/>
	<path style="fill:#D45446;" d="M343.762,173.747l-173.42,173.425c-1.935,1.935-1.935,5.074,0,7.009l2.243,2.243l7.122,7.122
		l0.328,0.328l0.364,0.297c9.718,9.021,24.899,8.832,34.35-0.625l40.243-40.243c7.685-7.685,22.103-9.344,28.145-0.312
		l36.357,57.994l0.015-0.015c1.592,2.519,3.456,4.92,5.652,7.117c15.949,15.949,41.81,15.949,57.764,0
		c15.949-15.949,15.949-41.81,0-57.764c-2.197-2.197-4.593-4.06-7.117-5.652l0.02-0.02l-57.999-36.357
		c-8.965-5.898-7.398-20.434,0.287-28.119l42.015-42.015c9.457-9.457,9.646-24.632,0.625-34.35l-0.297-0.364l-0.328-0.328
		l-7.122-7.122l-2.243-2.243C348.836,171.812,345.697,171.812,343.762,173.747L343.762,173.747z M363.653,368.809
		c-5.299,5.299-13.921,5.299-19.22,0c-0.671-0.671-1.285-1.449-1.874-2.391l-9.615-15.242l0.015-0.015l-11.648-18.442
		c-0.963-1.521-1.055-3.942,0.63-5.627s4.106-1.592,5.632-0.63l18.427,11.658l0.036-0.036l15.232,9.626
		c0.937,0.594,1.72,1.203,2.391,1.874C368.947,354.893,368.952,363.515,363.653,368.809L363.653,368.809z"/>
	<path style="fill:#E46A5D;" d="M343.762,173.747l-173.42,173.425c-1.935,1.935-1.935,5.074,0,7.009l5.258,5.258
		c-1.935-1.935-1.935-5.074,0-7.009l173.419-173.42c1.935-1.935,5.074-1.935,7.009,0l-5.258-5.258
		C348.836,171.812,345.697,171.812,343.762,173.747L343.762,173.747z"/>
	<polygon style="fill:#CEEAF2;" points="258.447,81.331 77.921,261.857 170.291,347.218 343.813,173.701 	"/>
	<path style="fill:#E46A5D;" d="M382.925,330.322c-2.197-2.196-4.593-4.06-7.117-5.652l0.02-0.021l-57.999-36.357
		c-6.881-4.531-7.542-14.141-4.004-21.847c-13.389-1.413-27.274,2.995-37.535,13.256c-10.511,10.511-14.853,24.822-13.112,38.508
		c7.291-2.621,15.698-1.582,19.958,4.782l36.357,57.994l0.015-0.015c1.592,2.519,3.456,4.92,5.652,7.117
		c15.949,15.949,41.81,15.949,57.764,0C398.874,372.132,398.874,346.271,382.925,330.322L382.925,330.322z M363.653,368.809
		c-5.299,5.299-13.921,5.299-19.22,0c-0.671-0.671-1.285-1.449-1.874-2.391l-9.615-15.242l0.015-0.015l-11.648-18.442
		c-0.963-1.521-1.055-3.942,0.63-5.627s4.106-1.592,5.632-0.63l18.427,11.658l0.036-0.036l15.232,9.626
		c0.937,0.594,1.72,1.203,2.391,1.874C368.947,354.893,368.952,363.515,363.653,368.809L363.653,368.809z"/>
	<path style="fill:#D84B3F;" d="M338.222,359.547l-19.773,19.773l1.044,1.664l0.015-0.015c0.983,1.562,2.089,3.062,3.297,4.511
		l19.482-19.482L338.222,359.547L338.222,359.547z"/>
	<polygon style="fill:#D84B3F;" points="326.031,340.204 306.294,359.936 310.349,366.397 330.102,346.644 329.554,345.779 	"/>
	<path style="fill:#54797A;" d="M283.131,322.99l2.908,4.639L283.131,322.99L283.131,322.99z M281.825,321.331l-0.015,0.015
		c0.471,0.507,0.917,1.044,1.321,1.644l-0.041-0.061C282.706,322.355,282.281,321.823,281.825,321.331L281.825,321.331z
		 M316.18,286.976l-0.015,0.015l0.548,0.481h0.005l0.031,0.026l0.01,0.01l0.031,0.02l0.01,0.01l0.051,0.041l0.015,0.01l0.026,0.02
		l0.02,0.015l0.02,0.015l0.021,0.015l0.02,0.015l0.041,0.031l0.021,0.015l0.026,0.02l0.02,0.015l0.026,0.021l0.015,0.015
		l0.041,0.031l0.01,0.01l0.036,0.026l0.015,0.01l0.031,0.021l0.015,0.01l0.041,0.031l0.005,0.005l0.046,0.031l0.01,0.01l0.036,0.026
		l0.015,0.01l0.041,0.026l0.005,0.005l0.046,0.031l0.01,0.005l0.036,0.026l0.015,0.01l0.036,0.026l0.01,0.01l0.046,0.031l0.01,0.005
		l0.041,0.026l0.015,0.01l0.031,0.02l0.015,0.01l0.046,0.031l4.644,2.908l0,0l-4.644-2.908
		C317.225,287.898,316.687,287.447,316.18,286.976L316.18,286.976z"/>
	<path style="fill:#C93B30;" d="M283.095,322.929l0.041,0.061L283.095,322.929L283.095,322.929z M317.783,288.261l0.046,0.031
		L317.783,288.261L317.783,288.261z M317.732,288.23l0.031,0.021L317.732,288.23L317.732,288.23z M317.681,288.189l0.041,0.026
		L317.681,288.189L317.681,288.189z M317.624,288.154l0.046,0.031L317.624,288.154L317.624,288.154z M317.578,288.123l0.036,0.026
		L317.578,288.123L317.578,288.123z M317.527,288.087l0.036,0.026L317.527,288.087L317.527,288.087z M317.466,288.046l0.046,0.031
		L317.466,288.046L317.466,288.046z M317.419,288.015l0.041,0.026L317.419,288.015L317.419,288.015z M317.373,287.979l0.036,0.026
		L317.373,287.979L317.373,287.979z M317.317,287.939l0.046,0.031L317.317,287.939L317.317,287.939z M317.271,287.903l0.041,0.031
		L317.271,287.903L317.271,287.903z M317.225,287.872l0.031,0.021L317.225,287.872L317.225,287.872z M317.174,287.831l0.036,0.026
		L317.174,287.831L317.174,287.831z M317.123,287.79l0.041,0.031L317.123,287.79L317.123,287.79z M317.076,287.759l0.026,0.021
		L317.076,287.759L317.076,287.759z M317.036,287.724l0.026,0.02L317.036,287.724L317.036,287.724z M316.974,287.677l0.041,0.031
		L316.974,287.677L316.974,287.677z M316.933,287.647l0.021,0.015L316.933,287.647L316.933,287.647z M316.892,287.611l0.021,0.015
		L316.892,287.611L316.892,287.611z M316.851,287.585l0.015,0.01L316.851,287.585L316.851,287.585z M316.79,287.534l0.01,0.01
		L316.79,287.534L316.79,287.534z M316.749,287.498l0.01,0.01L316.749,287.498L316.749,287.498z M316.713,287.473L316.713,287.473
		L316.713,287.473L316.713,287.473z"/>
	<path style="fill:#D84B3F;" d="M316.165,286.991l-34.34,34.34c0.456,0.486,0.876,1.019,1.27,1.597l0.041,0.061l2.908,4.639
		l36.429-36.429l-4.644-2.908l-0.046-0.031l-0.015-0.01l-0.031-0.021l-0.015-0.01l-0.041-0.026l-0.01-0.005l-0.046-0.031l-0.01-0.01
		l-0.036-0.026l-0.015-0.01l-0.036-0.026l-0.005-0.005l-0.051-0.036l-0.005-0.005l-0.041-0.026l-0.015-0.01l-0.036-0.026
		l-0.01-0.005l-0.051-0.036h-0.005l-0.041-0.031l-0.015-0.01l-0.031-0.02l-0.015-0.01l-0.036-0.026l-0.01-0.01l-0.041-0.031
		l-0.015-0.015l-0.026-0.02l-0.016-0.02l-0.026-0.02l-0.02-0.015l-0.041-0.031l-0.021-0.015l-0.02-0.015l-0.02-0.015l-0.021-0.015
		l-0.026-0.02l-0.015-0.01l-0.051-0.041l-0.01-0.01l-0.031-0.02l-0.01-0.01l-0.031-0.026l-0.005-0.005L316.165,286.991
		L316.165,286.991z"/>
	<path style="fill:#54797A;" d="M354.391,343.378L354.391,343.378l6.441,4.07L354.391,343.378L354.391,343.378z M375.88,324.716
		L375.88,324.716L375.88,324.716L375.88,324.716z"/>
	<path style="fill:#D84B3F;" d="M374.164,323.604l-19.773,19.773l6.441,4.07l19.487-19.487c-1.423-1.188-2.903-2.278-4.439-3.251
		l0,0l-0.072-0.041l0.02-0.021L374.164,323.604L374.164,323.604z"/>
	<path style="fill:#54797A;" d="M294.144,340.552L294.144,340.552l2.514,4.009L294.144,340.552L294.144,340.552z M335.396,299.3
		L335.396,299.3l4.219,2.647L335.396,299.3L335.396,299.3z"/>
	<polygon style="fill:#D84B3F;" points="335.396,299.3 294.144,340.552 296.658,344.566 298.194,347.013 341.857,303.355 
		339.615,301.947 	"/>
	<polygon style="fill:#D84B3F;" points="354.78,311.455 335.037,331.192 336.333,332.012 341.478,335.268 361.242,315.505 	"/>
	<path style="fill:#54797A;" d="M363.418,369.039c-1.9,1.812-4.198,2.959-6.61,3.456l-0.01,0.01
		C359.214,372.009,361.518,370.852,363.418,369.039L363.418,369.039z M363.469,368.993l-0.041,0.041L363.469,368.993
		L363.469,368.993z M363.51,368.952l-0.036,0.031L363.51,368.952L363.51,368.952z M363.556,368.906l-0.036,0.036L363.556,368.906
		L363.556,368.906z M363.597,368.865l-0.031,0.031L363.597,368.865L363.597,368.865z M363.694,368.768l-0.041,0.041l-0.041,0.041
		l0.041-0.041L363.694,368.768L363.694,368.768z M363.74,368.722l-0.041,0.041L363.74,368.722L363.74,368.722z M363.786,368.676
		l-0.041,0.041L363.786,368.676L363.786,368.676z M367.345,361.964l-0.01,0.01c-0.507,2.447-1.685,4.782-3.543,6.702
		C365.655,366.751,366.838,364.411,367.345,361.964L367.345,361.964z"/>
	<path style="fill:#D84B3F;" d="M389.801,339.507l-22.456,22.456c-0.507,2.452-1.69,4.792-3.553,6.707l-0.005,0.005l-0.041,0.041
		l0,0l-0.041,0.041l-0.01,0.01l-0.041,0.041l-0.041,0.041l-0.01,0.01l-0.031,0.031l-0.01,0.01l-0.041,0.041l-0.01,0.01l-0.036,0.031
		l-0.005,0.005l-0.041,0.041l-0.005,0.005c-1.9,1.812-4.204,2.97-6.615,3.466l-22.456,22.456c2.365,1.306,4.828,2.355,7.357,3.159
		l51.251-51.251C392.156,344.335,391.101,341.873,389.801,339.507L389.801,339.507z"/>
	<path style="fill:#6AB4BB;" d="M346.03,338.094l1.92,1.213L346.03,338.094L346.03,338.094z M341.478,335.268L341.478,335.268
		l4.521,2.857L341.478,335.268L341.478,335.268z M362.778,316.467l4.925,3.087l0,0L362.778,316.467L362.778,316.467z"/>
	<polygon style="fill:#E7796E;" points="361.242,315.505 361.242,315.505 341.478,335.268 345.994,338.13 346.03,338.094 
		347.95,339.308 367.703,319.555 362.778,316.467 	"/>
	<path style="fill:#E7796E;" d="M341.857,303.355L341.857,303.355l-43.658,43.658l2.007,3.205l2.043,3.261l19.717-19.717
		l-0.655-1.034c-0.435-0.681-0.691-1.546-0.691-2.447c0-1.101,0.389-2.253,1.316-3.18c0.932-0.932,2.084-1.316,3.19-1.316
		c0.896,0,1.761,0.256,2.447,0.686l1.029,0.65l19.717-19.717l-2.406-1.51L341.857,303.355L341.857,303.355z"/>
	<path style="fill:#6AB4BB;" d="M325.161,388.086l0.072,0.072L325.161,388.086L325.161,388.086z M344.484,368.86
		c0.952,0.942,2.007,1.715,3.133,2.319l0.005-0.005C346.496,370.57,345.436,369.802,344.484,368.86L344.484,368.86z
		 M342.559,366.423L342.559,366.423c0.594,0.937,1.203,1.72,1.874,2.391l0.041,0.041l-0.041-0.041
		C343.762,368.143,343.153,367.36,342.559,366.423L342.559,366.423z"/>
	<path style="fill:#E7796E;" d="M342.287,365.993L342.287,365.993l-19.482,19.482c0.742,0.891,1.521,1.766,2.355,2.606l0.072,0.072
		c0.917,0.911,1.869,1.756,2.842,2.565l19.538-19.538c-1.126-0.604-2.181-1.377-3.133-2.319l-0.005-0.005l-0.041-0.041
		c-0.671-0.671-1.285-1.449-1.874-2.391L342.287,365.993L342.287,365.993z"/>
	<path style="fill:#6AB4BB;" d="M286.044,327.629L286.044,327.629l2.903,4.628L286.044,327.629L286.044,327.629z M322.468,291.2
		L322.468,291.2l6.461,4.05l0,0L322.468,291.2L322.468,291.2z"/>
	<polygon style="fill:#E7796E;" points="322.468,291.2 286.044,327.629 288.947,332.257 290.094,334.09 328.934,295.25 	"/>
	<polygon style="fill:#DC5D53;" points="322.468,291.2 286.044,327.629 286.044,327.629 322.468,291.2 	"/>
	<polygon style="fill:#E7796E;" points="330.102,346.644 310.349,366.397 312.433,369.731 314.399,372.859 334.152,353.101 
		332.943,351.181 332.959,351.165 	"/>
	<path style="fill:#6AB4BB;" d="M363.699,349.645c0.942,0.952,1.71,2.012,2.314,3.139l0.005-0.005
		C365.414,351.652,364.641,350.592,363.699,349.645L363.699,349.645z M363.653,349.594l0.041,0.041L363.653,349.594L363.653,349.594
		z M360.832,347.448L360.832,347.448l0.43,0.271L360.832,347.448L360.832,347.448z M383.043,330.44l0.015,0.015L383.043,330.44
		L383.043,330.44z M382.925,330.322L382.925,330.322l0.087,0.087L382.925,330.322L382.925,330.322z"/>
	<path style="fill:#E7796E;" d="M380.319,327.962L380.319,327.962l-19.487,19.487l0.43,0.271c0.937,0.594,1.72,1.203,2.391,1.874
		l0.041,0.041l0.005,0.005c0.942,0.952,1.715,2.007,2.319,3.133l19.543-19.543c-0.788-0.952-1.613-1.884-2.499-2.78l-0.015-0.015
		l-0.031-0.031l-0.087-0.087C382.085,329.482,381.21,328.709,380.319,327.962L380.319,327.962z"/>
	<path style="fill:#E7796E;" d="M392.955,346.865L392.955,346.865l-51.251,51.251c2.857,0.901,5.791,1.5,8.75,1.761l44.257-44.257
		C394.455,352.655,393.861,349.722,392.955,346.865L392.955,346.865z"/>
	<circle style="fill:#6EBEC5;" cx="220.262" cy="327.68" r="4.562"/>
	<circle style="fill:#6EBEC5;" cx="322.524" cy="225.434" r="4.562"/>
	<polygon style="fill:#50A4AE;" points="150.354,189.425 138.271,201.503 114.217,225.562 114.217,225.556 	"/>
	<polygon style="fill:#BAE0EC;" points="155.72,197.683 120.658,232.75 190.531,310.784 213.996,287.314 	"/>
	<polygon style="fill:#63B6C0;" points="235.008,104.771 225.341,114.437 235.008,104.771 	"/>
	<polygon style="fill:#50A4AE;" points="235.008,104.771 225.341,114.437 182.282,157.491 235.008,104.771 	"/>
	<polygon style="fill:#BAE0EC;" points="239.862,113.541 187.602,165.801 245.345,255.964 292.562,208.753 	"/>
	<polygon style="fill:#CE655A;" points="298.332,219.182 251.668,265.841 298.353,219.213 	"/>
	<polygon style="fill:#E7F5F9;" points="258.447,81.331 235.008,104.771 239.862,113.541 264.996,88.412 	"/>
	<polygon style="fill:#E7F5F9;" points="182.282,157.491 150.354,189.425 155.72,197.683 187.602,165.801 	"/>
	<polygon style="fill:#E7F5F9;" points="114.217,225.562 77.921,261.857 85.002,268.401 120.658,232.75 114.217,225.556 	"/>
	<polygon style="fill:#DDF0F6;" points="150.354,189.425 114.217,225.562 120.658,232.75 155.72,197.683 	"/>
	<polygon style="fill:#DDF0F6;" points="235.008,104.771 182.282,157.491 187.602,165.801 239.862,113.541 	"/>
	<path style="fill:#A7D3DC;" d="M245.345,255.964l-31.35,31.35l6.385,9.815l31.293-31.293L245.345,255.964L245.345,255.964z
		 M336.031,165.279l-43.469,43.469l5.77,10.429l45.481-45.481L336.031,165.279L336.031,165.279z"/>
	<polygon style="fill:#489AA3;" points="161.874,339.441 161.874,339.441 170.291,347.218 	"/>
	<polygon style="fill:#A7D3DC;" points="190.531,310.784 161.874,339.441 170.291,347.218 198.18,319.329 	"/>
	<polygon style="fill:#97CAD7;" points="213.996,287.314 190.531,310.784 198.18,319.329 220.38,297.134 	"/>
	<polygon style="fill:#97CAD7;" points="292.562,208.753 245.345,255.964 251.668,265.841 298.332,219.182 	"/>
</g>
</svg>