<?xml version="1.0" encoding="iso-8859-1"?>
<!-- Uploaded to: SVG Repo, www.svgrepo.com, Generator: SVG Repo Mixer Tools -->
<svg version="1.1" id="Layer_1" xmlns="http://www.w3.org/2000/svg" xmlns:xlink="http://www.w3.org/1999/xlink" 
	 viewBox="0 0 512 512" xml:space="preserve">
<g>
	<circle style="fill:#E46A5D;" cx="256" cy="256" r="256"/>
	<path style="fill:#D9594C;" d="M437.018,437.018c55.485-55.485,80.123-130.104,74.02-202.619l-0.763-0.763L333.768,57.134
		L67.589,323.313l75.433,75.433l-2.499,2.499l110.643,110.643C318.285,513.147,385.802,488.238,437.018,437.018z"/>
	<path style="fill:#FFFFFF;" d="M323.661,241.664l-82.693,82.693c-3.661,3.661-3.661,9.6,0,13.266l8.402,8.402
		c3.661,3.661,9.6,3.661,13.266,0l82.693-82.693c3.661-3.661,3.661-9.6,0-13.266l-8.402-8.402
		C333.261,237.998,327.322,237.998,323.661,241.664z M183.153,381.768c-6.093,6.093-6.093,15.974,0,22.067
		c6.093,6.093,15.974,6.093,22.067,0s6.093-15.974,0-22.067C199.127,375.675,189.251,375.675,183.153,381.768z M381.071,183.849
		c-6.093,6.093-6.093,15.974,0,22.067c6.093,6.093,15.974,6.093,22.067,0c6.093-6.093,6.093-15.974,0-22.067
		C397.046,177.756,387.169,177.756,381.071,183.849z"/>
	<path style="fill:#F1B14F;" d="M140.524,401.244l45.225,45.225l260.024-260.024l-45.225-45.225L140.524,401.244z M205.225,403.835
		c-6.093,6.093-15.974,6.093-22.067,0c-6.093-6.093-6.093-15.974,0-22.067c6.093-6.093,15.974-6.093,22.067,0
		C211.318,387.86,211.318,397.742,205.225,403.835z M345.329,250.066c3.661,3.661,3.661,9.6,0,13.266l-82.693,82.693
		c-3.661,3.661-9.6,3.661-13.266,0l-8.402-8.402c-3.661-3.661-3.661-9.6,0-13.266l82.693-82.693c3.661-3.661,9.6-3.661,13.266,0
		L345.329,250.066z M403.144,205.916c-6.093,6.093-15.974,6.093-22.067,0c-6.093-6.093-6.093-15.974,0-22.067
		c6.093-6.093,15.974-6.093,22.067,0C409.236,189.942,409.236,199.823,403.144,205.916z"/>
	<path style="fill:#ED9E24;" d="M403.144,183.849c6.093,6.093,6.093,15.974,0,22.067c-6.093,6.093-15.974,6.093-22.067,0
		l-39.946,39.946l4.204,4.204c3.661,3.661,3.661,9.6,0,13.266l-82.698,82.693c-3.661,3.661-9.6,3.661-13.266,0l-4.204-4.204
		l-39.946,39.946c6.093,6.093,6.093,15.974,0,22.067c-6.093,6.093-15.974,6.093-22.067,0l-20.019,20.019l22.615,22.615
		l260.024-260.024l-22.615-22.615L403.144,183.849z"/>
	<path style="fill:#3194B0;" d="M185.748,446.469l6.589-6.589l-45.225-45.225l-6.589,6.589L185.748,446.469z M394.358,147.41
		l45.225,45.225l6.589-6.589l-45.225-45.225L394.358,147.41z"/>
	<path style="fill:#2B8199;" d="M185.748,446.469l6.589-6.589l-22.615-22.615l-6.589,6.589L185.748,446.469z M416.968,170.02
		l22.615,22.615l6.589-6.589l-22.615-22.615L416.968,170.02z"/>
	
		<rect x="387.63" y="184.027" transform="matrix(-0.7071 0.7071 -0.7071 -0.7071 806.8801 55.8088)" style="fill:#68C4DE;" width="8.504" height="21.975"/>
	<rect x="189.85" y="381.798" style="fill:#68C4DE;" width="8.504" height="21.975"/>
	
		<rect x="234.068" y="288.601" transform="matrix(-0.7071 0.7071 -0.7071 -0.7071 708.405 293.4162)" style="fill:#68C4DE;" width="118.732" height="9.646"/>
	<path style="fill:#6EBEC5;" d="M376.653,179.43c-8.525,8.525-8.525,22.39,0,30.909c8.525,8.525,22.39,8.525,30.909,0
		c8.525-8.525,8.525-22.39,0-30.915C399.043,170.906,385.172,170.906,376.653,179.43z M403.144,205.916
		c-6.093,6.093-15.974,6.093-22.067,0c-6.093-6.093-6.093-15.974,0-22.067c6.093-6.093,15.974-6.093,22.067,0
		C409.236,189.942,409.236,199.823,403.144,205.916z M178.734,377.349c-8.525,8.525-8.525,22.39,0,30.915
		c8.525,8.525,22.39,8.525,30.915,0c8.525-8.525,8.525-22.39,0-30.915C201.124,368.824,187.254,368.824,178.734,377.349z
		 M205.225,403.835c-6.093,6.093-15.974,6.093-22.067,0c-6.093-6.093-6.093-15.974,0-22.067c6.093-6.093,15.974-6.093,22.067,0
		C211.318,387.86,211.318,397.742,205.225,403.835z M319.237,237.24l-82.693,82.693c-6.093,6.093-6.093,16.015,0,22.108l8.402,8.402
		c6.098,6.093,16.015,6.093,22.108,0l82.693-82.693c6.093-6.093,6.093-16.015,0-22.108l-8.402-8.402
		C335.252,231.148,325.335,231.148,319.237,237.24z M345.329,250.066c3.661,3.661,3.661,9.6,0,13.266l-82.693,82.693
		c-3.661,3.661-9.6,3.661-13.266,0l-8.402-8.402c-3.661-3.661-3.661-9.6,0-13.266l82.693-82.693c3.661-3.661,9.6-3.661,13.266,0
		L345.329,250.066z"/>
	<path style="fill:#FFFFFF;" d="M373.243,96.609l-39.475-39.475L67.589,323.313l39.475,39.475L373.243,96.609z M342.226,80.041
		c1.915-1.915,5.043-1.894,6.984,0.046c1.94,1.94,1.961,5.069,0.046,6.984c-1.915,1.915-5.043,1.894-6.984-0.046
		C340.326,85.084,340.306,81.961,342.226,80.041z"/>
	<path style="fill:#CEEAF2;" d="M121.631,329.078l9.641,9.641l3.215-3.215l-9.641-9.641L121.631,329.078z M169.841,280.873
		l9.641,9.641l3.215-3.215l-9.641-9.641L169.841,280.873z M137.702,313.011l9.641,9.641l3.215-3.215l-9.641-9.641L137.702,313.011z
		 M153.769,296.94l9.641,9.641l3.215-3.215l-9.641-9.641L153.769,296.94z M201.979,248.735l9.641,9.641l3.215-3.215l-9.641-9.641
		L201.979,248.735z M185.907,264.806l9.641,9.641l3.215-3.215l-9.641-9.641L185.907,264.806z M105.564,345.149l9.641,9.641
		l3.215-3.215l-9.641-9.641L105.564,345.149z M282.322,168.392l9.641,9.641l3.215-3.215l-9.641-9.641L282.322,168.392z
		 M266.25,184.458l9.641,9.641l3.215-3.215l-9.641-9.636L266.25,184.458z M298.388,152.325l9.641,9.641l3.215-3.215l-9.641-9.641
		L298.388,152.325z M349.809,100.905l-3.215,3.215l9.641,9.641l3.215-3.215L349.809,100.905z M330.527,120.187l9.641,9.641
		l3.215-3.215l-9.641-9.641L330.527,120.187z M314.46,136.253l9.641,9.641l3.215-3.215l-9.641-9.641L314.46,136.253z
		 M218.045,232.668l9.641,9.641l3.215-3.215l-9.641-9.641L218.045,232.668z M250.184,200.53l9.641,9.641l3.215-3.215l-9.641-9.641
		L250.184,200.53z M234.112,216.596l9.641,9.641l3.215-3.215l-9.641-9.641L234.112,216.596z M343.101,117.253l4.823,4.823
		l3.215-3.215l-4.823-4.823L343.101,117.253z M230.62,229.734l4.823,4.823l3.215-3.215l-4.823-4.823L230.62,229.734z
		 M262.758,197.596l4.823,4.823l3.215-3.215l-4.823-4.823L262.758,197.596z M246.687,213.668l4.823,4.823l3.215-3.215l-4.823-4.823
		L246.687,213.668z M198.482,261.873l4.823,4.823l3.215-3.215l-4.823-4.823L198.482,261.873z M214.548,245.801l4.823,4.823
		l3.215-3.215l-4.823-4.823L214.548,245.801z M310.963,149.391l4.823,4.823l3.215-3.215l-4.823-4.823L310.963,149.391z
		 M327.03,133.32l4.823,4.823l3.215-3.215l-4.823-4.823L327.03,133.32z M294.897,165.458l4.823,4.823l3.215-3.215l-4.823-4.823
		L294.897,165.458z M278.825,181.53l4.823,4.823l3.215-3.215l-4.823-4.823L278.825,181.53z M150.277,310.077l4.823,4.823
		l3.215-3.215l-4.823-4.823L150.277,310.077z M118.139,342.216l4.823,4.823l3.215-3.215L121.354,339L118.139,342.216z
		 M182.41,277.939l4.823,4.823l3.215-3.215l-4.823-4.823L182.41,277.939z M166.344,294.011l4.823,4.823l3.215-3.215l-4.823-4.823
		L166.344,294.011z M134.205,326.149l4.823,4.823l3.215-3.215l-4.823-4.823L134.205,326.149z"/>
</g>
</svg>